Coordinates
version=1
nRows=30
nColumns=33
inDegrees=yes

Units are S.I. units (second, meters, Newtons, ...)
Angles are in degrees.

endheader
time	ground_thorax_rot_x	ground_thorax_rot_y	ground_thorax_rot_z	ground_thorax_tx	ground_thorax_ty	ground_thorax_tz	clav_prot_r	clav_elev_r	scapula_abduction_r	scapula_elevation_r	scapula_upward_rot_r	scapula_winging_r	shoulder_elv_r	plane_of_elev_r	axial_rot_r	elbow_flexion_r	pro_sup_r	wrist_flex_r	wrist_dev_r	clav_prot_l	clav_elev_l	scapula_abduction_l	scapula_elevation_l	scapula_upward_rot_l	scapula_winging_l	shoulder_elv_l	plane_of_elev_l	axial_rot_l	elbow_flexion_l	pro_sup_l	wrist_flex_l	wrist_dev_l	
5.0800	-30.701165	-30.107101	35.948753	-69.880349	861.422739	-50.562719	25.208902	-45.000000	42.925076	-45.000000	-32.396286	3482.398263	-455.900442	145.033671	-180.000000	2514.410168	63.856194	31.606845	14.066429	-3.378269	34.013884	-30.350689	-45.000000	-45.000000	2251.992646	-7121.900119	26.736199	43.114803	2870.213664	43.953388	12.822547	-22.760828	
5.0900	-30.573887	-30.282381	36.206407	-69.440172	861.049593	-50.573318	25.175009	-45.000000	42.946036	-45.000000	-32.363006	3482.320010	-455.929538	144.980642	-180.000000	2514.342350	64.124788	31.684250	14.007751	-3.430942	34.007040	-30.286577	-45.000000	-45.000000	2251.977295	-7121.931488	26.692418	43.053581	2870.249255	44.011028	12.795872	-22.830217	
5.1000	-30.401659	-30.517770	36.545195	-68.949383	860.661127	-50.582841	25.100596	-45.000000	42.951865	-45.000000	-32.312970	3482.267991	-455.906275	144.911806	-180.000000	2514.225933	64.374311	31.748793	13.987503	-3.484991	33.990672	-30.195107	-45.000000	-45.000000	2251.918532	-7121.910572	26.570791	43.012744	2870.293540	44.053479	12.787386	-22.896441	
5.1100	-30.275721	-30.683915	36.797131	-68.353692	860.235159	-50.592825	25.066145	-45.000000	42.983671	-45.000000	-32.253085	3482.203652	-455.940533	144.875792	-180.000000	2514.178789	64.541039	31.823901	13.949551	-3.527942	33.980533	-30.134059	-45.000000	-45.000000	2251.885446	-7121.931762	26.549774	43.034941	2870.314960	44.076057	12.774891	-22.947770	
5.1200	-30.164535	-30.834417	37.029323	-67.640176	859.772432	-50.600256	25.047267	-45.000000	43.024011	-45.000000	-32.181197	3482.144712	-456.000604	144.850740	-180.000000	2514.149485	64.635318	31.897295	13.920101	-3.564189	33.971094	-30.083240	-45.000000	-45.000000	2251.858418	-7121.952645	26.568983	43.108601	2870.319613	44.072242	12.768566	-22.981938	
5.1300	-30.048568	-30.989249	37.269941	-66.789821	859.270597	-50.602614	25.031972	-45.000000	43.076241	-45.000000	-32.098449	3482.103473	-456.065554	144.842631	-180.000000	2514.133228	64.654571	31.968697	13.908367	-3.593177	33.960221	-30.030970	-45.000000	-45.000000	2251.821535	-7121.963158	26.602726	43.237439	2870.317277	44.034304	12.773729	-22.991743	
5.1400	-29.931666	-31.145550	37.516483	-65.796106	858.732495	-50.596953	25.029399	-45.000000	43.128399	-45.000000	-32.015301	3482.078873	-456.145794	144.837152	-180.000000	2514.123225	64.606737	32.034493	13.915605	-3.621342	33.948238	-29.984868	-45.000000	-45.000000	2251.785935	-7121.969485	26.656338	43.415952	2870.305578	43.957322	12.791066	-22.989528	
5.1500	-29.792789	-31.325694	37.801207	-64.660660	858.163057	-50.581052	25.017712	-45.000000	43.175368	-45.000000	-31.939080	3482.088682	-456.210652	144.839259	-180.000000	2514.111810	64.508394	32.093922	13.948937	-3.647170	33.930683	-29.930206	-45.000000	-45.000000	2251.732270	-7121.957618	26.693443	43.638222	2870.297417	43.843878	12.824925	-22.974450	
5.1600	-29.648413	-31.501682	38.094228	-63.388018	857.565788	-50.554192	25.012978	-45.000000	43.211002	-45.000000	-31.883285	3482.129206	-456.277003	144.847401	-180.000000	2514.118872	64.368902	32.152130	13.993903	-3.661623	33.912299	-29.891191	-45.000000	-45.000000	2251.678682	-7121.951240	26.735670	43.902366	2870.284712	43.698991	12.866429	-22.965493	
5.1700	-29.487933	-31.677677	38.405637	-61.986131	856.943469	-50.516860	25.005127	-45.000000	43.236406	-45.000000	-31.861054	3482.204246	-456.332223	144.863429	-180.000000	2514.151845	64.206176	32.212405	14.051043	-3.671640	33.890043	-29.859214	-45.000000	-45.000000	2251.616083	-7121.951717	26.769826	44.199033	2870.281920	43.537202	12.916685	-22.956313	
5.1800	-29.319925	-31.842756	38.726138	-60.465108	856.297787	-50.470196	25.002730	-45.000000	43.250351	-45.000000	-31.886254	3482.310219	-456.392208	144.890824	-180.000000	2514.219710	64.034749	32.278713	14.110238	-3.678024	33.866255	-29.844669	-45.000000	-45.000000	2251.551593	-7121.961562	26.804068	44.512699	2870.274801	43.371587	12.968844	-22.955853	
5.1900	-29.137456	-32.005576	39.070119	-58.836849	855.629864	-50.415314	24.997728	-45.000000	43.251835	-45.000000	-31.970931	3482.453907	-456.448436	144.935858	-180.000000	2514.320520	63.871858	32.349111	14.168308	-3.678938	33.838841	-29.830473	-45.000000	-45.000000	2251.478151	-7121.968859	26.833940	44.824507	2870.271129	43.216240	13.021993	-22.938977	
5.2000	-28.935706	-32.169487	39.445970	-57.113617	854.940331	-50.352748	24.995595	-45.000000	43.243844	-45.000000	-32.118724	3482.636098	-456.499856	145.002798	-180.000000	2514.453420	63.725936	32.426199	14.220521	-3.669678	33.810055	-29.815887	-45.000000	-45.000000	2251.391580	-7121.964876	26.852484	45.126483	2870.259480	43.070528	13.072645	-22.908559	
5.2100	-28.719234	-32.329374	39.843070	-55.307157	854.229808	-50.282233	25.001438	-45.000000	43.220583	-45.000000	-32.335714	3482.852501	-456.550093	145.081153	-180.000000	2514.616327	63.602522	32.506675	14.267831	-3.653687	33.779992	-29.795128	-45.000000	-45.000000	2251.297530	-7121.957022	26.872350	45.410403	2870.250538	42.933028	13.124707	-22.850302	
5.2200	-28.486085	-32.488941	40.263213	-53.427637	853.499407	-50.202801	25.018953	-45.000000	43.185402	-45.000000	-32.619658	3483.103754	-456.597818	145.174560	-180.000000	2514.807070	63.498410	32.592182	14.311697	-3.635725	33.748555	-29.764793	-45.000000	-45.000000	2251.191339	-7121.937100	26.888247	45.680150	2870.232341	42.794309	13.180670	-22.774750	
5.2300	-28.246371	-32.637108	40.686140	-51.483095	852.751298	-50.113188	25.058522	-45.000000	43.134255	-45.000000	-32.969555	3483.383798	-456.646245	145.271514	-180.000000	2515.024401	63.406347	32.680752	14.353818	-3.611461	33.717323	-29.734045	-45.000000	-45.000000	2251.086075	-7121.922470	26.912970	45.948677	2870.214854	42.644723	13.244231	-22.682363	
5.2400	-28.002026	-32.774289	41.105198	-49.479052	851.989022	-50.012302	25.120907	-45.000000	43.075273	-45.000000	-33.376076	3483.687432	-456.697110	145.371554	-180.000000	2515.267243	63.316281	32.774632	14.400721	-3.590828	33.685629	-29.708060	-45.000000	-45.000000	2250.983128	-7121.915413	26.941784	46.223366	2870.195652	42.478031	13.318867	-22.588030	
5.2500	-27.753969	-32.899755	41.516501	-47.418861	851.217586	-49.899659	25.210817	-45.000000	43.011508	-45.000000	-33.834075	3484.006727	-456.752030	145.469865	-180.000000	2515.532432	63.217946	32.871388	14.454242	-3.571867	33.655715	-29.690729	-45.000000	-45.000000	2250.887031	-7121.922357	26.979222	46.507760	2870.178437	42.295719	13.404230	-22.490276	
5.2600	-27.499419	-33.021538	41.928384	-45.304081	850.443019	-49.775584	25.312087	-45.000000	42.939894	-45.000000	-34.344195	3484.349122	-456.804308	145.573794	-180.000000	2515.817890	63.102869	32.969086	14.516670	-3.552995	33.626047	-29.677488	-45.000000	-45.000000	2250.791115	-7121.931114	27.017366	46.794507	2870.157023	42.103841	13.499961	-22.382399	
5.2700	-27.250461	-33.125501	42.318328	-43.135076	849.671570	-49.641202	25.436964	-45.000000	42.852420	-45.000000	-34.919039	3484.714745	-456.856356	145.675671	-180.000000	2516.127749	62.963953	33.068742	14.586942	-3.525341	33.600218	-29.680598	-45.000000	-45.000000	2250.705399	-7121.958337	27.070864	47.100907	2870.139547	41.899637	13.604006	-22.266060	
5.2800	-27.010327	-33.214733	42.686685	-40.911472	848.908609	-49.498200	25.576217	-45.000000	42.738755	-45.000000	-35.565449	3485.112452	-456.904188	145.777317	-180.000000	2516.459978	62.800078	33.168514	14.666181	-3.486309	33.577373	-29.692164	-45.000000	-45.000000	2250.623923	-7121.991702	27.139757	47.417390	2870.120636	41.689231	13.714982	-22.138819	
5.2900	-26.775720	-33.291292	43.036640	-38.632872	848.157641	-49.348534	25.739314	-45.000000	42.600519	-45.000000	-36.301981	3485.543608	-456.947638	145.879826	-180.000000	2516.818728	62.611441	33.266876	14.751315	-3.441234	33.556631	-29.709179	-45.000000	-45.000000	2250.545460	-7122.029491	27.225152	47.755174	2870.100898	41.478039	13.830452	-21.998715	
5.3000	-26.542749	-33.362944	43.378753	-36.298918	847.419284	-49.194035	25.914690	-45.000000	42.433470	-45.000000	-37.138065	3486.018599	-456.979618	145.992335	-180.000000	2517.204927	62.401652	33.359611	14.839618	-3.387423	33.535885	-29.724921	-45.000000	-45.000000	2250.461944	-7122.060967	27.317350	48.103653	2870.076352	41.276671	13.948008	-21.842287	
5.3100	-26.306713	-33.429316	43.715727	-33.909643	846.690735	-49.036095	26.108272	-45.000000	42.247692	-45.000000	-38.087996	3486.539792	-456.997019	146.124795	-180.000000	2517.626296	62.173151	33.444947	14.925251	-3.328376	33.514205	-29.743464	-45.000000	-45.000000	2250.372685	-7122.092661	27.412997	48.476161	2870.051798	41.091160	14.064686	-21.673915	
5.3200	-26.064888	-33.497448	44.057211	-31.465133	845.965462	-48.875192	26.305198	-45.000000	42.043151	-45.000000	-39.140281	3487.110798	-456.994699	146.286046	-180.000000	2518.078132	61.930555	33.516157	15.005881	-3.257903	33.490717	-29.760554	-45.000000	-45.000000	2250.270752	-7122.116534	27.503007	48.856167	2870.023801	40.932898	14.177484	-21.492445	
5.3300	-25.821043	-33.562744	44.396835	-28.965817	845.233548	-48.710797	26.492595	-45.000000	41.820753	-45.000000	-40.289718	3487.744259	-456.965357	146.492296	-180.000000	2518.564348	61.673547	33.567891	15.078335	-3.165431	33.465521	-29.786175	-45.000000	-45.000000	2250.153701	-7122.135259	27.581285	49.251116	2869.994568	40.806526	14.284083	-21.296246	
5.3400	-25.574609	-33.629424	44.736100	-26.411843	844.482249	-48.540876	26.668064	-45.000000	41.588882	-45.000000	-41.483416	3488.414001	-456.915730	146.724962	-180.000000	2519.064535	61.404728	33.597923	15.150116	-3.057071	33.438579	-29.817600	-45.000000	-45.000000	2250.026063	-7122.151991	27.647957	49.653881	2869.962191	40.712596	14.383759	-21.086990	
5.3500	-25.323650	-33.699074	45.082223	-23.803675	843.697048	-48.362959	26.823765	-45.000000	41.368049	-45.000000	-42.617700	3489.072698	-456.861412	146.962602	-180.000000	2519.542128	61.123016	33.602592	15.236043	-2.942945	33.409505	-29.854602	-45.000000	-45.000000	2249.896026	-7122.171162	27.705360	50.069554	2869.932097	40.644504	14.475812	-20.868852	
5.3600	-25.044780	-33.797348	45.473842	-21.142329	842.862882	-48.175140	26.968286	-45.000000	41.191777	-45.000000	-43.574904	3489.642352	-456.827826	147.157660	-180.000000	2519.942782	60.827288	33.577201	15.357448	-2.859954	33.375766	-29.869223	-45.000000	-45.000000	2249.770081	-7122.182661	27.755843	50.478603	2869.897422	40.598376	14.561592	-20.642569	
5.3700	-24.717470	-33.939825	45.947653	-18.430318	841.965323	-47.978324	27.094399	-45.000000	41.083532	-45.000000	-44.282089	3490.080537	-456.828572	147.294842	-180.000000	2520.229901	60.514230	33.517825	15.531302	-2.832052	33.332383	-29.857856	-45.000000	-45.000000	2249.651745	-7122.181523	27.784083	50.875256	2869.857792	40.569992	14.643916	-20.410394	
